<?xml version="1.0" encoding="UTF-8"?>
<svg id="svg11265" xmlns="http://www.w3.org/2000/svg" viewBox="0 0 1500 750">
  <defs>
    <style>
      .cls-1, .cls-2, .cls-3, .cls-4, .cls-5, .cls-6, .cls-7, .cls-8, .cls-9, .cls-10, .cls-11 {
        stroke: #584500;
        stroke-linejoin: round;
      }

      .cls-1, .cls-2, .cls-3, .cls-4, .cls-5, .cls-6, .cls-9 {
        fill: #ffcd18;
      }

      .cls-1, .cls-2, .cls-4, .cls-5, .cls-11 {
        fill-rule: evenodd;
      }

      .cls-1, .cls-5, .cls-6, .cls-7, .cls-8, .cls-10, .cls-11 {
        stroke-width: 3px;
      }

      .cls-12 {
        fill: #d00a2c;
      }

      .cls-12, .cls-13, .cls-14 {
        stroke-width: 0px;
      }

      .cls-2 {
        stroke-width: 4.125px;
      }

      .cls-3 {
        stroke-width: 3px;
      }

      .cls-3, .cls-5, .cls-6, .cls-8, .cls-9, .cls-10 {
        stroke-linecap: round;
      }

      .cls-4 {
        stroke-width: 4.125px;
      }

      .cls-13 {
        fill: #00205c;
      }

      .cls-14 {
        fill: #8eb8c9;
      }

      .cls-7, .cls-10 {
        fill: none;
      }

      .cls-8, .cls-11 {
        fill: #e6b400;
      }

      .cls-9 {
        stroke-width: 3px;
      }
    </style>
  </defs>
  <g id="g1387">
    <path id="path9665" class="cls-14" d="m0,0h1500v750H0V0Z"/>
    <path id="path9667" class="cls-12" d="m0,0h1000v750H0V0Z"/>
    <path id="path9669" class="cls-13" d="m0,0h500v750H0V0Z"/>
    <g id="g9827">
      <path id="path9673" class="cls-1" d="m994.332,475.171c14.716-9.037,29.526,8.81,18.75,19.922-73.723,76.025-210.612,154.394-263.085,154.394s-189.362-78.37-263.086-154.395c-10.775-11.111,4.035-28.96,18.75-19.922,58.474,35.913,180.922,113.965,244.336,113.965s185.863-78.052,244.336-113.965Z"/>
      <path id="path9675" class="cls-7" d="m949.895,550.047c-77.281,48.277-174.36,88.074-199.898,88.074s-122.611-39.795-199.891-88.07"/>
      <path id="path9677" class="cls-6" d="m814.965,380.838c-2.106.835-3.914,2.283-5.188,4.156l-11.073,16.179c-3.547,5.159-2.241,12.217,2.918,15.764.014.009.027.019.041.028,5.159,3.547,12.217,2.241,15.764-2.918.009-.014.019-.027.028-.041l11.073-16.179c3.547-5.159,2.24-12.218-2.919-15.765-.013-.009-.027-.019-.041-.028-3.114-2.142-7.09-2.591-10.603-1.197h0Zm1.277,3.083c2.472-.96,5.259-.638,7.448.859,3.662,2.506,4.599,7.506,2.093,11.168-2.507,3.662-7.507,4.599-11.169,2.092-3.662-2.507-4.599-7.507-2.093-11.169.914-1.336,2.211-2.365,3.72-2.951h0Zm-11.291,16.268c2.52-1.065,5.409-.774,7.667.771,3.661,2.506,4.598,7.506,2.093,11.168-2.506,3.662-7.506,4.599-11.168,2.093-3.663-2.506-4.6-7.507-2.094-11.169,0,0,0,0,0,0,.869-1.27,2.085-2.264,3.503-2.863h0Z"/>
      <g id="g9725">
        <g id="g9693">
          <path id="path9679" class="cls-1" d="m1000.313,513.92c1.641,6.705,17.559,14.678,21.919,8.548,3.733-5.248-.24-12.552-9.114-13.47l-12.805,4.922Z"/>
          <path id="path9681" class="cls-1" d="m986.273,506.463c-1.759,2.186,10.712,10.325,13.589,10.06,4.54-.418,14.969-3.553,17.604-5.347,2.355-1.603-6.694-10.141-9.99-10.412-8.322-.684-16.087-.66-21.203,5.7h0Z"/>
          <g id="g9691">
            <path id="path9683" class="cls-2" d="m970.751,496.235c-1.903,2.366,11.593,11.174,14.707,10.887,4.914-.453,16.2-3.846,19.052-5.787,2.549-1.734-7.244-10.976-10.811-11.268-9.007-.741-17.412-.715-22.948,6.168h0Z"/>
            <path id="path9685" class="cls-2" d="m953.279,484.907c-2.104,2.616,12.815,12.352,16.257,12.035,5.432-.501,17.907-4.251,21.061-6.396,2.817-1.918-8.008-12.133-11.951-12.457-9.958-.818-19.248-.79-25.368,6.819h0Z"/>
            <path id="path9687" class="cls-2" d="m934.333,472.531c-2.304,2.865,14.038,13.531,17.808,13.182,5.95-.549,19.616-4.657,23.07-7.006,3.087-2.1-8.772-13.291-13.091-13.645-10.907-.896-21.084-.865-27.787,7.469Z"/>
            <path id="path9689" class="cls-2" d="m915.07,459.379c-2.405,2.99,14.649,14.119,18.584,13.757,6.21-.573,20.47-4.859,24.074-7.312,3.221-2.192-9.154-13.869-13.661-14.239-11.381-.935-22.001-.903-28.997,7.794h0Z"/>
          </g>
        </g>
        <path id="path9695" class="cls-1" d="m579.388,207.452l9.029,18.645,340.06,247.735,8.548-12.019,8.548-12.019-345.611-239.931-20.575-2.41Z"/>
        <path id="path9697" class="cls-11" d="m579.387,207.452l9.029,18.645,330.877,241.045c-8.062-7.695-8.916-11.707-4.137-20.918l-335.77-238.774h0Z"/>
        <path id="path9699" class="cls-1" d="m885.941,490.428c-.429,4.647,16.19,23.652,18.91,20.95,12.113-12.031,22.593-25.523,32.797-39.631,3.167.267,6.24-1.155,8.085-3.742,1.838-2.592,2.174-5.962.882-8.865,9.98-14.269,19.283-28.596,26.674-43.988,1.66-3.456-21.747-12.918-25.995-10.988-.366,3.709,6.763,16.275,5.437,18.23-5.187,7.65-9.204,13.263-13.608,19.134-1.664,2.218-16.401,6.384-18.161,8.859-1.76,2.475-.859,17.763-2.408,20.062-4.101,6.087-8.085,11.723-13.609,19.134-1.411,1.893-15.621-.717-19.005.846h0Z"/>
        <g id="g9723">
          <g id="g9715">
            <path id="path9701" class="cls-1" d="m499.688,513.92c-1.641,6.705-17.559,14.678-21.919,8.548-3.733-5.248.24-12.552,9.114-13.47l12.805,4.922Z"/>
            <path id="path9703" class="cls-1" d="m513.728,506.463c1.759,2.186-10.712,10.325-13.589,10.06-4.541-.418-14.969-3.553-17.604-5.347-2.355-1.603,6.694-10.141,9.99-10.412,8.322-.684,16.088-.66,21.203,5.7h0Z"/>
            <g id="g9713">
              <path id="path9705" class="cls-4" d="m529.258,496.219c1.903,2.366-11.593,11.174-14.707,10.887-4.914-.453-16.2-3.846-19.052-5.787-2.549-1.734,7.244-10.976,10.811-11.268,9.007-.741,17.412-.715,22.948,6.168h0Z"/>
              <path id="path9707" class="cls-4" d="m546.731,484.89c2.104,2.616-12.815,12.352-16.257,12.035-5.432-.501-17.907-4.251-21.061-6.396-2.817-1.918,8.008-12.133,11.951-12.457,9.958-.818,19.248-.79,25.368,6.819h0Z"/>
              <path id="path9709" class="cls-4" d="m565.676,472.516c2.304,2.865-14.038,13.531-17.808,13.182-5.95-.549-19.616-4.657-23.069-7.006-3.087-2.1,8.772-13.291,13.091-13.646,10.907-.896,21.084-.865,27.787,7.469Z"/>
              <path id="path9711" class="cls-4" d="m584.94,459.364c2.405,2.99-14.649,14.119-18.584,13.757-6.21-.573-20.47-4.859-24.074-7.312-3.221-2.192,9.154-13.869,13.661-14.239,11.381-.935,22.001-.903,28.997,7.794h0Z"/>
            </g>
          </g>
          <path id="path9717" class="cls-1" d="m920.613,207.452l-9.03,18.645-340.06,247.735-8.549-12.019-8.549-12.019,345.611-239.931,20.575-2.41Z"/>
          <path id="path9719" class="cls-11" d="m920.612,207.452l-335.77,238.772c4.78,9.21,3.926,13.223-4.136,20.918l330.877-241.045,9.028-18.645h0Z"/>
          <path id="path9721" class="cls-1" d="m614.06,490.428c.429,4.647-16.19,23.652-18.91,20.95-12.113-12.031-22.593-25.523-32.797-39.631-3.167.267-6.24-1.155-8.085-3.742-1.838-2.592-2.174-5.962-.882-8.865-9.98-14.269-19.283-28.596-26.674-43.988-1.66-3.456,21.747-12.918,25.995-10.988.366,3.709-6.763,16.275-5.437,18.23,5.187,7.65,9.204,13.263,13.608,19.134,1.664,2.218,16.401,6.384,18.161,8.859,1.76,2.475.86,17.763,2.409,20.062,4.1,6.087,8.084,11.723,13.608,19.134,1.411,1.893,15.622-.717,19.005.846h0Z"/>
        </g>
      </g>
      <g id="g9731">
        <path id="path9727" class="cls-6" d="m737.418,253.688c-1.857-.004-3.365,1.497-3.369,3.354v34.438c-.004,1.857,1.498,3.365,3.354,3.369h28.286c1.857.004,3.365-1.497,3.369-3.354v-34.439c.004-1.857-1.498-3.365-3.354-3.369h-28.286Zm3.576,3.551h21.121v34.057h-21.122v-34.057h0Z"/>
        <rect id="rect9729" class="cls-6" x="740.993" y="290.246" width="21.121" height="253.322"/>
      </g>
      <g id="g9745">
        <g id="g9737">
          <path id="path9733" class="cls-6" d="m739.859,472.973c-3.073-.005-6.076.911-8.622,2.631l-22.07,14.82c-7.058,4.718-8.955,14.264-4.237,21.321.012.018.024.036.037.055,4.717,7.058,14.262,8.956,21.32,4.24.019-.013.038-.025.057-.038l22.07-14.82c7.058-4.718,8.956-14.265,4.237-21.323-.012-.018-.024-.036-.037-.055-2.847-4.261-7.63-6.823-12.754-6.83h0Zm.06,4.525c3.596.031,6.946,1.835,8.95,4.821,3.354,4.995,2.024,11.764-2.971,15.118-4.995,3.354-11.764,2.025-15.118-2.97-3.355-4.995-2.027-11.764,2.968-15.12h.002c1.823-1.225,3.973-1.869,6.169-1.85h0Zm-22.388,14.821c3.709-.077,7.202,1.74,9.27,4.82,3.354,4.995,2.024,11.764-2.972,15.118s-11.764,2.024-15.118-2.971c-3.355-4.995-2.026-11.764,2.969-15.119,0,0,0,0,0,0,1.733-1.163,3.763-1.805,5.85-1.847h0Zm62.426-59.662c-2.798.982-5.237,2.781-7.001,5.164l-15.324,20.575c-4.908,6.56-3.569,15.857,2.991,20.765.017.013.034.025.051.038,6.559,4.908,15.855,3.57,20.764-2.99.013-.017.026-.035.039-.052l15.324-20.576c4.908-6.56,3.569-15.857-2.991-20.766-.017-.013-.035-.026-.052-.039-3.959-2.964-9.135-3.759-13.801-2.119h0Zm1.508,4.099c3.283-1.126,6.91-.56,9.694,1.513,4.657,3.469,5.62,10.055,2.152,14.713-3.469,4.657-10.056,5.621-14.714,2.153-4.658-3.468-5.622-10.056-2.154-14.714,0,0,0,0,.001-.001,1.266-1.699,3.016-2.976,5.02-3.663Zm-15.614,20.679c3.351-1.26,7.112-.73,9.983,1.408,4.657,3.469,5.62,10.055,2.152,14.713-3.469,4.657-10.055,5.62-14.713,2.153-4.658-3.469-5.621-10.056-2.153-14.714,0,0,0,0,0,0,1.203-1.615,2.845-2.85,4.73-3.56h0Z"/>
          <rect id="rect9735" class="cls-9" x="738.517" y="470.917" width="35.95" height="7.969" rx="3.984" ry="3.984" transform="translate(-126.884 607.028) rotate(-40.626)"/>
        </g>
        <g id="g9743">
          <path id="path9739" class="cls-6" d="m794.707,278.428c.672-.995,2.022-1.258,3.018-.587l26.696,18.012c6.799,4.566,8.609,13.779,4.043,20.578-.012.018-.024.035-.036.053-4.565,6.799-13.777,8.61-20.576,4.045-.018-.012-.037-.025-.055-.037l-26.695-18.012c-.995-.672-1.257-2.023-.585-3.019.672-.995,2.022-1.258,3.018-.587l5.435,3.667c4.813,3.248,11.346,1.978,14.593-2.835,3.247-4.812,1.978-11.345-2.834-14.592l-5.436-3.667c-.995-.672-1.257-2.023-.585-3.019h0Zm12.688,23.865c-3.247,4.812-1.978,11.346,2.835,14.593,4.812,3.248,11.345,1.978,14.592-2.835,3.247-4.812,1.978-11.345-2.835-14.592-4.811-3.248-11.345-1.978-14.592,2.835h0Z"/>
          <path id="rect9741" class="cls-3" d="m759.801,270.457h0c-1.432,2.1-.891,4.963,1.209,6.395l31.14,21.237c2.1,1.432,4.963.891,6.395-1.209h0c1.432-2.1.891-4.963-1.209-6.395l-31.14-21.237c-2.1-1.432-4.963-.891-6.395,1.209Z"/>
        </g>
      </g>
      <g id="g9751">
        <path id="path9747" class="cls-1" d="m657.13,416.584c-11.781-.473-13.391,20.971-11.953,60.973,28.174,7.458,52.62,24.86,14.502,55.105,21.959,9.944,31.074,22.7,31.074,41.432h59.247v-47.855c-19.125,0-72.713-33.146-48.06-72.298-22.199-24.995-36.213-37.012-44.809-37.357h0Zm77.089,130.204c4.296,0,7.778,3.483,7.778,7.779,0,4.295-3.483,7.777-7.778,7.777-4.295,0-7.777-3.482-7.778-7.777,0-4.296,3.482-7.779,7.778-7.779Z"/>
        <path id="path9749" class="cls-1" d="m842.87,416.584c-8.597.345-22.611,12.361-44.809,37.357,24.652,39.153-28.937,72.298-48.062,72.298v47.855h59.249c0-18.732,9.115-31.488,31.074-41.432-38.118-30.245-13.672-47.647,14.502-55.105,1.437-40.001-.172-61.446-11.953-60.973h0Zm-77.089,130.204c4.296,0,7.778,3.483,7.778,7.779,0,4.295-3.483,7.777-7.778,7.777-4.295,0-7.777-3.482-7.778-7.777,0-4.296,3.482-7.779,7.778-7.779Z"/>
      </g>
      <g id="g9765">
        <g id="g9755">
          <path id="path9753" class="cls-10" d="m653.945,435.328c5.713,41.748,46.728,29.883,14.209-1.904m-17.384,25.49c.725,5.8,2.383,9.322,6.319,12.636m28.782-26.921c3.961,4.299,5.58,7.839,5.569,12.985"/>
        </g>
        <g id="g9759">
          <path id="path9757" class="cls-10" d="m846.055,435.328c-5.713,41.748-46.729,29.883-14.209-1.904m17.383,25.49c-.725,5.8-2.382,9.322-6.318,12.636m-28.782-26.921c-3.961,4.299-5.58,7.839-5.57,12.985"/>
        </g>
        <path id="path9761" class="cls-7" d="m819.446,455.097c.637,43.495-50.269,77.686-69.445,77.686s-70.084-34.192-69.445-77.687"/>
        <path id="path9763" class="cls-7" d="m826.877,462.181c-4.492,44.92-56.615,79.261-76.877,79.261s-72.386-34.342-76.877-79.261"/>
      </g>
      <path id="path9767" class="cls-6" d="m650.066,534.026h204.262l-4.395,7.974h-204.262l4.395-7.974Z"/>
      <g id="g9783">
        <path id="path9769" class="cls-6" d="m750,110.512l18.994,35.5,39.597-7.284-15.913,36.983,30.383,26.417-38.836,10.618-1.71,40.225-32.515-23.743-32.515,23.743-1.71-40.225-38.836-10.618,30.383-26.417-15.912-36.983,39.597,7.284,18.994-35.5Z"/>
        <path id="path9771" class="cls-8" d="m750,110.512v74.934l29.294-23.359,29.293-23.359-15.91,36.983-42.674,9.739,36.527,8.339,36.527,8.339-38.833,10.618-34.222-27.289,16.255,33.758,16.255,33.758-32.512-23.743v-43.768l-16.258,33.756-16.258,33.756,32.519-23.743-.008-43.771-36.528,8.336-36.528,8.336,38.84,10.618,34.215-27.296-29.292-23.361-29.292-23.362,15.916,36.984,42.672,9.735,19-39.435-18.997-35.499Z"/>
        <path id="path9773" class="cls-7" d="m731.006,146.012l18.991,39.434"/>
        <g id="g9781">
          <path id="rect9775" class="cls-6" d="m691.218,245.24h117.563c4.233,0,7.665,4.241,7.665,9.472v.294c0,5.232-3.432,9.472-7.665,9.472h-117.563c-4.233,0-7.665-4.241-7.665-9.472v-.294c0-5.232,3.432-9.472,7.665-9.472Z"/>
          <g id="g9779">
            <path id="path9777" class="cls-8" d="m703.69,245.241l4.489,19.237h21.779l-4.489-19.237h-21.779Zm43.558,0l4.49,19.237h21.779l-4.49-19.237h-21.779Zm43.559,0l4.489,19.237h13.484c4.246,0,7.666-4.225,7.666-9.472v-.292c0-5.249-3.419-9.472-7.665-9.472h-17.974,0Z"/>
          </g>
        </g>
      </g>
      <g id="g9825">
        <g id="g9807">
          <path id="path9785" class="cls-1" d="m750,447.51v-111.37c-38.449-16.97-63.445-29.413-99.702-45.608-9.139-4.082-27.916-4.576-49.851-11.667-18.033-5.83-31.51-10.253-51.506-18.187-2.869-1.139-3.893.273-6.3.553-1.987.232-4.111-1.495-6.098-1.724-4.348-.498-9.454,1.32-12.994-1.325-12.77-9.548-25.564-12.398-34.404-16.906-10.763-5.488-17.435-13.854-23.402-15.18-.375,4.687,1.864,15.388,5.801,21.013-1.5,0-3.15,2.025-2.775,4.463-6.187-4.594-11.125-10.789-17.125-16.226-1.5,9.375,1.902,22.08,17.09,31.08-2.515.42-4.255,1.447-4.951,2.739-10.195-1.985-.75,14.66,12.353,17.687-1.693,1.858-2.274,3.733-.853,6.287-11.623,5.734,12.041,16.531,16.634,17.423,1.886,2.692,3.189,3.878,6.225,5.713-9.943,2.575,8.953,11.41,17.11,12.442-.562,3.375,8.79,10.271,32.295,13.258-8.154,6.562,9.148,7.757,13.922,6.364-.133,6.761,6.098,7.557,15.247,2.519-2.652,10.076,14.451,8.485,25.853,5.7-4.905,7.16,9.106,4.956,15.379,3.448.266,8.353,16.242,6.298,22.407-.398-3.951,7.449,12.86,3.315,18.826-.398-1.723,3.579,13.921,1.061,18.562-1.061-4.254,8.584,16.084,10.715,33.147-14.223h20.018v24.035c-26.961,15.738-41.166,29.372-56.082,51.707-3.107,4.652.662,8.883,7.822,5.038-1.194,6.629-.796,9.413,9.943,6.895.729,4.64,5.701,5.369,12.926-3.911-2.625,11.437,2.264,12.782,7.889,6.032-5.625,13.875.953,16.625,9.015,8.75,0,7.5,3.656,10.98,9.281,2.918,5.062,24.187,18.296,10.97,18.296,2.121h0Z"/>
          <path id="path9787" class="cls-1" d="m559.79,264.874c-1.929,1.191-3.81,2.281-5.358,3.028-7.066,3.409-15.933,5.577-27.75,6-5.035.18-10.125,6.375,12,9.187-10.5,1.125-14.437,9.375,5.437,8.062-6.842,5.081-12.562,11.903,11.625,9.937-7.312,7.125,2.437,6.75,14.812,5.437-3,5.812-3.187,8.437,15.562,6.375-5.437,9.375.187,12,15.937,6.187-2.812,7.875,3.75,8.25,13.125,5.062-3.562,6.187-2.062,10.5,16.875,2.25-1.875,6.562,1.875,7.5,14.437,2.437-2.625,7.687-.375,10.875,13.312.187-1.687,8.25,0,14.625,16.125-2.625-.187,6,1.687,8.25,7.5,3,.187,6.187,4.125,6.562,8.25.75-.182,5.648,5.659,9.166,23.539-9.739-21.502-9.923-40.736-19.076-64.923-29.88-9.139-4.082-27.917-4.577-49.852-11.668-14.562-4.707-26.204-8.527-40.657-13.99h0Z"/>
          <path id="path9789" class="cls-1" d="m547.084,260.245c-1.612-.07-2.638.777-4.443.987-.397.047-.799,0-1.205-.083,1.865,2.666,3.975,5.126,6.433,7.503,2.253,2.18,5.695,2.041,8.437,3.562,16.252,9.014,30.542,15.467,53.25,20.437,2.348.514,4.354-.205,6.75,0,28.334,2.418,55.5,15.375,103.875,38.437l3.585-6.744c-25.151-11.505-46.111-21.594-73.468-33.813-9.139-4.082-27.917-4.577-49.852-11.668-18.033-5.829-31.509-10.252-51.506-18.186-.717-.285-1.32-.41-1.857-.434h0Z"/>
          <path id="path9791" class="cls-5" d="m689.619,341.215c-3.682,6.873-9.303,13.531-11.876,16.935m-6.311-16.372c.132,5.899-8.689,14.358-12.25,17.433m-2.562-16.87c.132,6.165-13.613,14.219-16.264,17.269m-1.736-18.581c-5.304,7.954-13.402,14.468-20.672,18.979m2.815-23.633c-3.911,6.562-9.377,14.352-18.194,20.185m3.051-23.969c-5.37,9.082-17.237,10.38-28.905,18.268m10.749-23.584c-2.784,8.22-18.239,12.646-25.995,21.065m8.338-25.124c-3.315,6.96-15.697,16.573-22.26,18.76m13.26-27.01c-5.9,9.878-37.963,14.096-45.555,13.752m36.946-19.619c-19.29-1.538-20.995,6.611-60.281,1.465m38.126-16.013c-14.709,8.719-39.002-3.853-53.908-7.697m40.796-.763c-18.96-7.822-32.685-12.902-48.198-19.664m51.385,4.289c-10.832,1.856-34.644-6.812-51.349-19.142m2.775-4.463c7.088,7.088,13.81,11.759,35.644,22.568m221.055,103.412c-18.297,19.092-42.811,43.396-45.596,51.617m9.944,6.895c-.254-8.353,31.144-48.778,35.651-58.324m3.376,9.187c-9.567,9.85-23.714,37.667-26.1,45.225m35.201-31.091c-2.785,22.672-10.128,41.352-9.016,48.791m-2.387-49.85c-4.5,9.75-9.91,22.62-15.91,38.182"/>
          <path id="path9793" class="cls-1" d="m463.782,269.165c7.69,2.519,19.129,5.496,25.095,5.629m-13.594,18.346c5.548-2.334,19.85,1.721,28.822,2.512m-5.963,20.623c8.025-2.226,14.058-3.24,21.558-4.095"/>
          <g id="g9805">
            <path id="path9795" class="cls-1" d="m750,447.51v-111.37c38.449-16.97,63.445-29.413,99.702-45.608,9.139-4.082,27.917-4.576,49.851-11.667,18.033-5.83,31.511-10.253,51.506-18.187,2.87-1.139,3.892.273,6.3.553,1.987.232,4.112-1.495,6.098-1.724,4.348-.498,9.454,1.32,12.994-1.325,12.77-9.548,25.564-12.398,34.404-16.906,10.763-5.488,17.435-13.854,23.402-15.18.375,4.687-1.864,15.388-5.801,21.013,1.5,0,3.15,2.025,2.775,4.463,6.187-4.594,11.125-10.789,17.125-16.226,1.5,9.375-1.902,22.08-17.09,31.08,2.515.42,4.255,1.447,4.952,2.739,10.195-1.985.75,14.66-12.353,17.687,1.693,1.858,2.274,3.733.853,6.287,11.623,5.734-12.04,16.531-16.634,17.423-1.886,2.692-3.189,3.878-6.225,5.713,9.944,2.575-8.953,11.41-17.11,12.442.562,3.375-8.79,10.271-32.295,13.258,8.154,6.562-9.148,7.757-13.922,6.364.133,6.761-6.098,7.557-15.247,2.519,2.652,10.076-14.452,8.485-25.853,5.7,4.905,7.16-9.106,4.956-15.379,3.448-.266,8.353-16.242,6.298-22.407-.398,3.951,7.449-12.86,3.315-18.827-.398,1.723,3.579-13.922,1.061-18.562-1.061,4.253,8.584-16.085,10.715-33.147-14.223h-20.018v24.035c26.961,15.738,41.166,29.372,56.082,51.707,3.107,4.652-.663,8.883-7.823,5.038,1.194,6.629.796,9.413-9.944,6.895-.729,4.64-5.701,5.369-12.926-3.911,2.625,11.437-2.264,12.782-7.889,6.032,5.625,13.875-.953,16.625-9.015,8.75,0,7.5-3.656,10.98-9.281,2.918-5.062,24.187-18.296,10.97-18.296,2.121h0Z"/>
            <path id="path9797" class="cls-1" d="m940.211,264.874c1.929,1.191,3.81,2.281,5.358,3.028,7.066,3.409,15.933,5.577,27.75,6,5.035.18,10.125,6.375-12,9.187,10.5,1.125,14.437,9.375-5.437,8.062,6.841,5.081,12.562,11.903-11.625,9.937,7.312,7.125-2.437,6.75-14.812,5.437,3,5.812,3.187,8.437-15.562,6.375,5.437,9.375-.187,12-15.937,6.187,2.812,7.875-3.75,8.25-13.125,5.062,3.562,6.187,2.062,10.5-16.875,2.25,1.875,6.562-1.875,7.5-14.437,2.437,2.625,7.687.375,10.875-13.312.187,1.687,8.25,0,14.625-16.125-2.625.187,6-1.687,8.25-7.5,3-.187,6.187-4.125,6.562-8.25.75.182,5.648-5.659,9.166-23.539-9.739,21.502-9.923,40.736-19.076,64.923-29.88,9.14-4.082,27.917-4.577,49.852-11.668,14.562-4.707,26.204-8.527,40.657-13.99h0Z"/>
            <path id="path9799" class="cls-1" d="m952.916,260.245c1.612-.07,2.638.777,4.443.987.397.047.799,0,1.204-.083-1.865,2.666-3.975,5.126-6.433,7.503-2.253,2.18-5.695,2.041-8.437,3.562-16.252,9.014-30.542,15.467-53.25,20.437-2.348.514-4.354-.205-6.75,0-28.333,2.418-55.5,15.375-103.875,38.437l-3.585-6.744c25.151-11.505,46.112-21.594,73.468-33.813,9.139-4.082,27.917-4.577,49.852-11.668,18.033-5.829,31.509-10.252,51.505-18.186.717-.285,1.32-.41,1.857-.434h0Z"/>
            <path id="path9801" class="cls-5" d="m843.381,342.34c-.132,6.165,13.613,14.219,16.265,17.269m1.735-18.581c5.304,7.954,13.402,14.468,20.672,18.979m-2.815-23.633c3.911,6.562,9.377,14.352,18.194,20.185m-3.051-23.969c5.37,9.082,17.237,10.38,28.905,18.268m-10.749-23.584c2.784,8.22,18.239,12.646,25.995,21.065m-8.339-25.124c3.315,6.96,15.698,16.573,22.26,18.76m-13.26-27.01c5.9,9.878,37.964,14.096,45.555,13.752m-36.946-19.619c19.29-1.538,20.995,6.611,60.281,1.465m-38.126-16.013c14.709,8.719,39.001-3.853,53.908-7.697m-40.796-.763c18.96-7.822,32.685-12.902,48.198-19.664m-51.386,4.289c10.832,1.856,34.644-6.812,51.35-19.142m-2.775-4.463c-7.087,7.088-13.81,11.759-35.644,22.568m-221.055,103.412c18.297,19.092,42.812,43.396,45.596,51.617m-9.944,6.895c.254-8.353-31.144-48.778-35.652-58.324m-3.375,9.187c9.567,9.85,23.714,37.667,26.1,45.225m-35.201-31.091c2.785,22.672,10.128,41.352,9.016,48.791m2.387-49.85c4.5,9.75,9.91,22.62,15.91,38.182"/>
            <path id="path9803" class="cls-1" d="m1036.218,269.165c-7.69,2.519-19.129,5.496-25.095,5.629m13.594,18.346c-5.548-2.334-19.849,1.721-28.823,2.512m5.963,20.623c-8.025-2.226-14.058-3.24-21.558-4.095"/>
          </g>
        </g>
        <g id="g9823">
          <path id="path9809" class="cls-5" d="m800.528,339.391c1.988-1.724,7.293-2.598,10.606-1.989,3.656.672,8.177,1.578,10.076,4.773,1.39,2.339,1.192,7.16.53,10.342-2.887-3.878-4.894-2.885-6.895-5.084-2.075-2.281-3.011-1.727-4.165-1.198-1.272.582-2.808,2.327-2.448,4.552.55,3.394,2.285,4.988,6.878,6.768-3.937.562-7.122.092-10.48-1.529-2.984-1.44-7.153-6.558-7.55-8.281l3.447-8.353Z"/>
          <g id="g9817">
            <path id="path9811" class="cls-5" d="m760.109,368.027c9.187,13.687,21.641,37.824,28.875,56.437l-8.25,6.562c-15.375-25.875-25.81-41.424-32.935-57.361-3.562,14.062-12.252,43.111-18.627,55.486l-7.875-6.75c3.562-14.062,5.73-29.63,5.557-43.341-.057-4.521-7.501-12.443-10.958-.22-2.387-5.303-2.848-15.791-.992-19.901-4.64,0-9.148,4.754-11.606,9.462-.53-11.137,1.648-19.117,6.818-24.288-5.568,1.591-5.371-7.735-.068-11.712-4.781-1.031-4.406-8.344,6.562-9.469,1.125-18.187,8.625-14.156,31.687,4.594l11.812,40.5Z"/>
            <path id="path9813" class="cls-5" d="m781.297,359.308c1.591,9.148-3.441,17.604-8.877,8.588-.663,14.187-5.779,15.947-11.745,5.473-1.875,3.375-8.453,2.488-10.14-1.449-.789,5.035-10.277,5.913-10.2-.795-5.062-.187-8.381-1.005-5.569-5.88-8.212-.138-9.1-1.593-6.098-11.343-10.125.375-9.195-3.669-4.133-8.919-5.812-1.312-7.514-6.573-.202-9.198-2.25-5.25,4.226-9.506,12.289-8.193-.562-5.773,5.387-3.461,11.668-4.243-3.482-1.692-14.65-7.294-15.275-15.04,5.303,3.315,17.149,9.798,21.656,10.594-1.969-2.719-3.281-6.094-3.187-9.281,2.25,3.36,5.495,4.489,7.855,5.023,2.433.551,5.75-1.545,9.765-1.478-.796,2.785-.945,5.611,1.78,7.189,2.235,1.295,7.448,1.327,8.758.375,2.089-1.518,4.363-2.557,7.28-2.955.266,2.52,2.336,6.898,6.977,9.152,2.156-1.312,3.14-3.652,3.234-7.027,4.781,3.375,2.235,8.155,4.455,11.403.929,1.357,3.934,1.747,4.073,3.386.438,5.223-1.839,11.264-5.265,16.567-1.605,2.486-7.767,6.689-12.744-.623-.851,2.785-3.635,6.986-6.354,8.674h0Z"/>
            <path id="path9815" class="cls-5" d="m745.484,330.996c-3.094,4.687-1.594,7.312,3.656,5.906-.141,2.625-.809,4.511-2.25,7.008-1.624,2.812-1.453,7.523,1.687,5.18-1.031,10.031,3.375,7.969,6.469,4.406-.844,6.844-.469,7.875,8.437,6.187-.75,4.594,5.81,2.1,8.914,1.02,2.958-1.029,6.777,0,8.898-1.395"/>
          </g>
          <path id="path9819" class="cls-10" d="m778.558,400.943c-.937,5.062,2.229,11.98,4.239,19.396m-57.642-17.408c2.93,5.416,1.268,15.483.08,22.845"/>
          <path id="path9821" class="cls-5" d="m792.962,337.626c1.559-.661,2.378-1.362,3.113-2.766m.741-.436c1.927,1.05,5.051,2.997,4.243,5.038-1.117,2.821-7.69,3.049-11.668,2.917-3.223-.108-5.173-3.535-9.413-5.303-1.861-.776-6.233-1.326-6.233-1.326,0,0,5.485-2.832,8.486-3.182,4.555-.531,9.587-.495,13.741,1.432l.843.424Zm-9.259,87.169c-1.506-11.751,10.45-8.817,7.038-12.439-3.734-3.965-12.033,2.79-14.812,13.18-1.358,5.073-13.264-5.633-14.424-1.303-.823,3.071,5.594,5.34,9.073,10.5,3.53,5.235,1.75,16.5,6.562,16.5,5.723,0,1.588-16.926,6.75-17.812,10.338-1.774,3.855,5.326,10.5,5.062,4.253-.169,3.176-11.051.42-12.028-3.688-1.309-10.718,1.387-11.108-1.66h0Zm-68.134,2.121c1.506-11.75-10.451-8.817-7.038-12.439,3.734-3.964,12.033,2.79,14.812,13.18,1.357,5.073,13.264-5.633,14.424-1.303.823,3.07-5.594,5.339-9.074,10.5-3.529,5.235-1.75,16.5-6.562,16.5-5.723,0-1.588-16.927-6.75-17.812-10.337-1.775-3.855,5.326-10.5,5.062-4.252-.169-3.176-11.051-.42-12.029,3.689-1.308,10.717,1.387,11.107-1.659Z"/>
        </g>
      </g>
    </g>
  </g>
</svg>